<svg xmlns="http://www.w3.org/2000/svg" version="1.1" id="Layer_1" x="0px" y="0px" viewBox="0 0 800 800" style="enable-background:new 0 0 800 800;" xml:space="preserve">
<style type="text/css">
	.st0{fill:#070707;}
	.st1{fill:#FDFDFD;}
	.st2{fill:#FAFAFA;}
	.st3{fill:#EAEAEA;}
	.st4{fill:#0A0A0A;}
	.st5{fill:#FCFCFC;}
	.st6{fill:#FBFBFB;}
	.st7{fill:#F8F8F8;}
</style>
<path class="st0" d="M596.46,519.95c0.02-0.1,0.04-0.2,0.07-0.31c0.19-1.79,0.41-3.57,0.71-5.34c0.32-2.46,0.86-4.93,1.69-7.46  c0.83-2.53,1.83-5,2.88-7.46c1.73-4.53,3.55-8.55,5.61-12.35c0.36-1.26,0.75-2.51,1.19-3.76c0.98-2.76,2.03-5.49,3.13-8.21  c0.61-1.62,1.27-3.23,1.99-4.81c1.92-4.53,3.93-9.02,5.91-13.52c2.81-7.01,5.56-14.11,9.01-20.81c1.68-4.26,3.44-8.37,5.44-12.28  c1.06-3.7,2.58-7.3,4.71-10.94c0.83-1.42,1.67-2.7,2.51-3.87c1.69-2.85,3.56-5.63,5.65-8.34c3.89-5.04,4.59-9.08,9.2-13.58  c2.08-3.31,10.58-17.98,12.82-21.17c12.96-18.43,15.67-21.44,26.66-36.15c6.6-8.84,10.43-18.72,14.13-28.75  c1.7-4.62,0.78-9.54-1.74-13.98c-5.05-8.89-10.94-17.18-18.9-23.65c-22.87-18.57-46.13-36.37-73.93-47.51  c-17.33-6.94-34.07-14.93-52.5-19.29c-25.01-5.91-49.66-12.68-75.3-16.3c-45.05-6.37-89.74-3.65-134.47,1.27  c-22.59,2.49-43.78,11.41-65.38,17.96c-15.72,4.76-30.71,12.43-45.38,20.04c-18.48,9.59-36.13,20.67-51.99,34.42  c-11.8,10.24-24.68,19.14-34.58,31.61c-9.74,12.28-15.95,26.09-20.98,40.67c-2.32,6.73-3.64,13.56-3.28,20.61  c1.06,20.8,6.67,40.84,10.68,61.12c2.71,13.7,8.4,26.54,13.13,39.67c7.5,20.8,16.73,40.88,27.42,60.01  c12.37,22.12,26.89,43.07,42.67,63.09c15.98,20.28,32.12,40.3,50.13,58.89c15.56,16.06,33.8,28.94,50.11,44.12  c8.69,8.09,18.64,15.53,28.43,22.78c17.94,13.29,36.32,25.53,55.83,36.39c16.66,9.28,34.25,14.89,52.74,18.15  c16.02,2.82,30.1-2.44,43.44-11.09c12.44-8.07,21.57-19.2,30.81-31.09c1.21-1.86,2.46-3.23,2.85-4.8  c4.96-20.02,13.84-38.69,19.36-58.62c7.02-25.39,15.85-50.33,23.33-75.64c1.83-6.19,4.15-12.2,6.42-18.31  C599.98,519.47,596.74,524.41,596.46,519.95z" />
<path class="st1" d="M216.86,534.48c-2.94-4.6-5.58-8.78-8.7-13.72c17.27,2.54,30.51-4.85,39.12-16.96  c17.94-25.25,22.57-53.67,13.7-83.84c-3.76-12.79-10.37-24.1-17.75-35.16c2.89-3.68,7.38-3.31,11.07-4.74  c9.65-3.74,19.23-7.7,29.04-10.97c26.07-8.68,52.34-17.3,79.36-21.84c38.04-6.38,76.34-12.32,115.24-9.59  c17.61,1.24,34.94,4.3,52.36,7.09c26.73,4.28,51.5,13.84,75.02,26.44c12.22,6.55,25.19,13.22,32.49,26.65  c-1.92,6.07-7.03,11.12-7.96,18.03c-0.26,1.97-2.12,2.49-3.82,2.81c-41.1,7.6-58.39,65.81-39.87,96.74  c1.38,2.31,2.13,4.19,1.13,7.28c-8.57,26.3-17.21,52.59-24.96,79.14c-8.08,27.69-15.61,55.65-26.51,82.29  c-9.54,23.31-24.56,42.8-49.47,53.04c-12.27,5.04-23.62,4.22-35.12-0.21c-24.57-9.47-47.49-22.08-69.12-37.12  c-3.81-2.65-6.82-6.01-10.49-9.08c17.15-21.35,17.36-43.53,5.45-67.74c-9.36-19.02-23.7-30.91-43.2-36.99  c-17.44-5.44-36.9-0.47-49.25,17.81c-1.21,1.79-2.68,3.4-5.3,6.69C257.71,585.7,236.56,561.06,216.86,534.48z" />
<path class="st1" d="M182.66,397.18c-9.47,4.94-16.35,12.62-25.37,17.87c-3.28-3.49-3.39-8.22-4.42-12.46  c-5.35-21.89-8.61-44.01-6.51-66.65c0.79-8.55,4.62-15.89,8.02-23.6c4.77-10.79,12.09-19.46,19.64-28.11  c8.67-9.91,18.43-18.59,28.71-26.87c16.93-13.64,35.23-25.23,54.49-34.88c18.24-9.14,37.11-17.35,56.81-23.08  c43.36-12.6,87.73-16.02,132.66-14.02c29.51,1.32,58.5,6.15,87.51,11.6c21.52,4.05,41.49,12.09,62.02,19  c23.83,8.01,44.72,21.1,65.48,34.46c12.43,8,23.36,18.23,33.15,29.45c5.8,6.66,4.68,20.42-2.37,29.74  c-11.73,15.51-22.48,31.65-32.45,48.35c-4.4,7.37-10.07,13.96-13.34,21.78c-3.1,0.11-4.43-1.94-5.96-3.21  c-15.12-12.62-32.8-21.12-50.52-28.78c-31.54-13.64-65.18-19.68-99.33-23.11c-40.18-4.03-79.97-1.67-119.96,3.64  c-25.8,3.43-50.34,10.65-75.28,17.13c-16.88,4.38-32.34,11.92-48.56,17.6c-12.44,4.35-23.07,11.77-34.95,16.62  C201.43,384.02,192.93,391.43,182.66,397.18z" />
<g id="right-eye">
	
		<ellipse transform="matrix(0.2571 -0.9664 0.9664 0.2571 6.2497 965.9618)" class="st0" cx="631.37" cy="478.92" rx="61.94" ry="51.83" />
	<ellipse class="st2" cx="637.57" cy="477.79" rx="22.81" ry="22.47" />
	
		<ellipse transform="matrix(0.2235 -0.9747 0.9747 0.2235 -10.2282 1011.4655)" class="st3" cx="629.68" cy="512.15" rx="5.88" ry="12" />
</g>
<g id="left-eye">
	
		<ellipse transform="matrix(0.2571 -0.9664 0.9664 0.2571 -136.367 680.4508)" class="st0" cx="374.37" cy="428.92" rx="61.94" ry="51.83" />
	<ellipse class="st2" cx="380.57" cy="427.79" rx="22.81" ry="22.47" />
	
		<ellipse transform="matrix(0.2235 -0.9747 0.9747 0.2235 -161.0629 722.1374)" class="st3" cx="372.68" cy="462.15" rx="5.88" ry="12" />
</g>
<g id="crown">
	<path class="st4" d="M256.15,197.7c-8.58,2.87-15.64,7.69-22.14,12.71c-7.77,6-17.01,9.2-24.58,15.7   c-11.21,9.63-22.76,18.83-33.88,28.63c-12.33,10.87-28.05,18.88-45.76,18.63c-12.97-0.19-21.86-7.98-29.05-18   c-10.27-14.31-15.15-30.45-16.78-47.84c-0.7-7.45-2.16-14.83-2.03-22.35c0.21-11.58,3.88-16.57,14.76-20.23   c14.86-4.99,30.16-3.56,45.2-2.01c7.14,0.74,9.75-0.99,10.9-7.49c2.52-14.2,4.9-28.44,8.13-42.48c3.1-13.48,9.5-25.75,17.04-37.22   c3.56-5.42,10.25-5.83,16.33-5.57c13.25,0.56,24.73,6.37,34.96,14.03c5.27,3.95,11.36,5.89,16.88,10.34   c5.81-9.72,12.68-17.81,20.74-25.15c5.81-5.3,11.61-7.64,18.91-5.92c20.54,4.82,35.26,23.58,36.67,44.77   c0.81,12.33,1.4,24.47,0.08,36.84c-1.73,16.08-11.89,30.37-27.66,34.46c-11.33,2.94-21.58,7.69-31.26,14.02   C261.38,195.02,258.97,196.17,256.15,197.7z" />
	<path class="st5" d="M99.23,182.16c4.36-5.81,10.51-6.53,16.48-7c11.07-0.88,22.05-1.21,32.86,2.89   c7.83,2.97,10.47,1.15,13.92-6.68c4.53-10.29,4.5-21.61,7.4-32.26c3.82-14.07,6.24-28.6,13.05-41.72   c7.52-14.48,14.24-16.37,29.18-9.81c8.9,3.91,16.61,9.18,24.26,15.09c9.53,7.36,12.77,9,21.09-2.34   c5.84-7.97,12.41-15.33,20.17-21.59c2.97-2.4,5.63-3.44,9.07-1.04c7.94,5.54,14.66,11.23,17.29,21.78   c2.76,11.08,5.42,21.86,5.41,33.37c-0.01,7.16-1.73,13.89-3.38,20.62c-1.34,5.47-4.15,9.12-10.95,11.08   c-9.79,2.82-18.39,9.5-27.99,13.29c-15.06,5.93-28.31,15.25-42.98,21.74c-7.53,3.33-12.16,10.13-19.21,13.9   c-11.39,6.09-19.64,16.06-29.35,24.25c-7.1,5.99-14.84,11.28-22.93,16.11c-11.46,6.85-21.83,5.81-30.84-2.7   c-11.62-10.98-17.22-24.46-20.3-39.64C99.56,201.97,98.44,192.46,99.23,182.16z" />
</g>
<g id="mouth">
	<path class="st4" d="M425.7,509.28c18.47-1.58,32.38,4.22,42.32,19.88c4.34,6.85,12.23,8.92,20.52,7.99   c6.73-0.75,13.44-1.03,20.15,0.6c23.57,5.74,29.69,21.23,21.22,42.29c-7.88,19.6-23.6,32.22-41.25,41.37   c-18.58,9.63-38.68,11.41-59.3,3.53c-16-6.11-27.44-16.65-36.58-30.52c-8.16-12.38-15.72-25.02-15.27-40.51   c0.3-10.22,4.3-19.21,11.78-26.26c3.83-3.61,6.53-8.18,11.16-11.18C408.02,511.56,416.27,509.78,425.7,509.28z" />
	<path class="st6" d="M472.76,547.65c7.47,2.22,14.41,0.92,21.31,0.27c9.51-0.89,15.54,4.29,20.04,11.61   c4.53,7.37,4.46,14.98-0.46,22.35c-3.58,5.38-7,10.86-10.64,16.2c-3.99,5.86-10.27,8.29-16.66,10.85   c-8.78-9.27-16.96-19.34-28.86-24.58c-17.36-7.64-35.35-12.9-54.62-8.58c-6.01,1.35-7.49-0.94-9.09-6.48   c-4.11-14.2-1.21-26.54,9.33-36.13c14.22-12.94,41.76-14.8,54.64,3.12C461.4,541.35,465.31,546.44,472.76,547.65z" />
	<path class="st7" d="M419.43,581.98c24.1,1.87,43.11,11.7,57.41,31.14c-8.67,8.33-18.25,6.3-27.63,4.38   c-10.93-2.24-20.3-8.36-30.1-13.25c-7.62-3.8-11.77-11.47-17.94-18.1C407.54,583.27,412.93,581.65,419.43,581.98z" />
</g>
</svg>