<?xml version="1.0" encoding="utf-8"?>
<!-- Generator: Adobe Adobe Illustrator 29.2.0, SVG Export Plug-In . SVG Version: 6.00 Build 0)  -->
<svg version="1.1" id="Layer_1" xmlns="http://www.w3.org/2000/svg" xmlns:xlink="http://www.w3.org/1999/xlink" x="0px" y="0px"
	 viewBox="0 0 800 800" style="enable-background:new 0 0 800 800;" xml:space="preserve">
<style type="text/css">
	.st0{fill:#070707;}
	.st1{fill:url(#cheese-face_00000109013578152969134730000007851841280723875485_);}
	.st2{fill:url(#crust-hair_00000073001356498565629390000003416669425633192362_);}
	.st3{fill:#FF5A31;stroke:#000000;stroke-width:10;stroke-miterlimit:10;}
	.st4{fill:#FAFAFA;}
	.st5{fill:#EAEAEA;}
	.st6{fill:#0A0A0A;}
	.st7{fill:#CD20FF;}
	.st8{fill:#FF90FE;}
	.st9{display:none;fill:#0A0A0A;}
	.st10{fill:url(#SVGID_1_);stroke:#000000;stroke-width:12.5;stroke-miterlimit:10;}
</style>
<g id="shape-body">
	<path id="outline" class="st0" d="M630.16,434.92c18.8-50.52,36.58-65.98,38.82-69.17c12.96-18.43,15.67-21.44,26.66-36.15
		c6.6-8.84,10.43-18.72,14.13-28.75c1.7-4.62,0.78-9.54-1.74-13.98c-5.05-8.89-10.94-17.18-18.9-23.65
		c-22.87-18.57-46.13-36.37-73.93-47.51c-17.33-6.94-34.07-14.93-52.5-19.29c-25.01-5.91-49.66-12.68-75.3-16.3
		c-45.05-6.37-89.74-3.65-134.47,1.27c-22.59,2.49-43.78,11.41-65.38,17.96c-15.72,4.76-30.71,12.43-45.38,20.04
		c-18.48,9.59-36.13,20.67-51.99,34.42c-11.8,10.24-24.68,19.14-34.58,31.61c-9.74,12.28-15.95,26.09-20.98,40.67
		c-2.32,6.73-3.64,13.56-3.28,20.61c1.06,20.8,6.67,40.84,10.68,61.12c2.71,13.7,8.4,26.54,13.13,39.67
		c7.5,20.8,16.73,40.88,27.42,60.01c12.37,22.12,26.89,43.07,42.67,63.09c15.98,20.28,32.12,40.3,50.13,58.89
		c15.56,16.06,33.8,28.94,50.11,44.12c8.69,8.09,18.64,15.53,28.43,22.78c17.94,13.29,36.32,25.53,55.83,36.39
		c16.66,9.28,34.25,14.89,52.74,18.15c16.02,2.82,30.1-2.44,43.44-11.09c12.44-8.07,21.57-19.2,30.81-31.09
		c1.02-1.71,3.33-4.93,5.35-10.8c2.96-8.59,46.92-156.86,63.86-197.62"/>
	
		<radialGradient id="cheese-face_00000043439037840745493690000003009375652108094632_" cx="399.0419" cy="504.0979" r="257.4195" gradientUnits="userSpaceOnUse">
		<stop  offset="0" style="stop-color:#FFFFBC"/>
		<stop  offset="0.528" style="stop-color:#FEFDBA"/>
		<stop  offset="0.7181" style="stop-color:#FAF6B4"/>
		<stop  offset="0.8537" style="stop-color:#F4EBA8"/>
		<stop  offset="0.9626" style="stop-color:#EADA98"/>
		<stop  offset="1" style="stop-color:#E6D290"/>
	</radialGradient>
	<path id="cheese-face" style="fill:url(#cheese-face_00000043439037840745493690000003009375652108094632_);" d="M622.49,417.65
		c-8.82,20.78-9.58,21.5-29.37,74.24c-0.95,2.52-7.87,24.19-8.87,27.28c-8.57,26.3-17.21,52.59-24.96,79.14
		c-8.08,27.69-15.61,55.65-26.51,82.29c-9.54,23.31-24.56,42.8-49.47,53.04c-12.27,5.04-23.62,4.22-35.12-0.21
		c-24.57-9.47-47.49-22.08-69.12-37.12c-3.81-2.65-12.82-8.51-16.49-11.58c-13.31-8.19-16.2-12.03-28.05-21.24
		c-16.2-12.58-17.84-14.94-24.7-20.99c-5.83-5.16-6.9-6.79-18.75-17.19c-10.7-9.38-17.01-16.59-24.55-25.06
		c-21.59-24.81-32.99-42.71-52.7-69.28c-2.94-4.6-5.58-8.78-8.7-13.72c-20.33-28.08-34.62-62.46-37.88-76.96
		c-5.09-22.59-3.6-20.23,23.7-35.84c29.57-16.9,22.1-10.92,49.25-23.16c7.24-3.37,7.38-3.31,11.07-4.74
		c9.65-3.74,19.23-7.7,29.04-10.97c26.07-8.68,52.34-17.3,79.36-21.84c38.04-6.38,76.34-12.32,115.24-9.59
		c17.61,1.24,34.94,4.3,52.36,7.09c26.73,4.28,51.5,13.84,75.02,26.44c12.22,6.55,37.14,17.23,32.49,26.65"/>
	
		<radialGradient id="crust-hair_00000166663477607779595660000014901625552817047214_" cx="561.2396" cy="518.7197" r="288.3336" gradientTransform="matrix(0.9844 0 0 0.9596 10.8975 16.7509)" gradientUnits="userSpaceOnUse">
		<stop  offset="0" style="stop-color:#F4AC49"/>
		<stop  offset="1" style="stop-color:#FEE579"/>
	</radialGradient>
	<path id="crust-hair" style="fill:url(#crust-hair_00000166663477607779595660000014901625552817047214_);" d="M186.71,393.9
		c-9.32,4.74-16.09,12.11-24.98,17.15c-3.23-3.35-8.2-18.46-9.27-22.51c-3.52-13.27-3.55-31.67-1.48-53.4
		c0.78-8.21,4.54-15.25,7.9-22.65c4.69-10.35,11.9-18.68,19.33-26.97c8.53-9.51,18.15-17.84,28.26-25.79
		c16.67-13.09,34.68-24.21,53.64-33.47c17.95-8.77,36.53-16.65,55.93-22.15c42.68-12.09,86.36-15.38,130.59-13.45
		c29.05,1.27,57.59,5.9,86.14,11.13c21.19,3.88,40.85,11.61,61.05,18.23c23.46,7.69,44.02,20.25,64.46,33.07
		c12.24,7.68,23,17.49,32.64,28.26c5.71,6.39,4.61,19.59-2.33,28.54c-11.54,14.89-22.13,30.37-31.94,46.4
		c-4.33,7.07-9.91,13.4-13.13,20.9c-3.05,0.1-4.37-1.86-5.86-3.08c-14.88-12.12-32.29-20.27-49.73-27.62
		c-31.05-13.09-64.16-18.89-97.78-22.18c-39.56-3.87-78.72-1.6-118.08,3.49c-25.4,3.29-49.55,10.22-74.1,16.44
		c-16.62,4.2-31.83,11.44-47.8,16.89c-12.25,4.18-22.71,11.3-34.41,15.95C205.19,381.27,196.82,388.38,186.71,393.9z"/>
	<path id="pep-2" class="st3" d="M360.2,683.13c12.5,5.88,16.01-49.49,4.37-71.78c-18.71-35.82-52.13-42.56-76.55-28.97
		c-6.91,3.84-24.94,18.02-19.62,23.39C325.59,663.57,346.16,676.52,360.2,683.13z"/>
	<path id="pep-1" class="st3" d="M172.46,456.85c-3.73-9.85-9.39-24.74-7.49-32.55c1.55-6.38,3.17-6.73,6.65-9.02
		c4.89-3.22,15.4-8.98,19.68-11.59c5.73-3.5,17.79-9.42,21.91-11.34c31.98-14.92,26.08-15.16,33.25-2.88
		c43.61,74.7-5.55,128.01-33.8,129.31c-3.38,0.16-3.12,0.26-6.48-0.23c-2.22-0.33-3.15-3.63-4.82-6.4c0,0-1.78-3.12-4.01-6.17
		c-3.5-4.77-7.28-12.1-9.58-15.94c-2.34-3.91-3.91-7.88-7.15-14.4C176.85,468.03,173.66,460.25,172.46,456.85"/>
</g>
<g id="right-eye">
	
		<ellipse transform="matrix(0.2571 -0.9664 0.9664 0.2571 -5.1179 953.1752)" class="st0" cx="617.37" cy="479.92" rx="61.94" ry="51.83"/>
	<ellipse class="st4" cx="623.57" cy="478.79" rx="22.81" ry="22.47"/>
	
		<ellipse transform="matrix(0.2235 -0.9747 0.9747 0.2235 -22.0744 998.5961)" class="st5" cx="615.68" cy="513.15" rx="5.88" ry="12"/>
</g>
<g id="left-eye_00000008141988258150821110000017318498437380373928_">
	
		<ellipse transform="matrix(0.2429 -0.9701 0.9701 0.2429 -122.875 689.1558)" class="st0" cx="380.05" cy="423.29" rx="69.34" ry="57.47"/>
	<ellipse class="st4" cx="386.92" cy="422.03" rx="25.28" ry="25.18"/>
	
		<ellipse transform="matrix(0.2273 -0.9738 0.9738 0.2273 -156.2514 724.1364)" class="st5" cx="378.18" cy="460.53" rx="6.58" ry="13.3"/>
</g>
<g id="mouth">
	<path class="st6" d="M429.7,508.28c13.72-0.48,28.38,5.22,38.32,20.88c4.34,6.85,12.23,8.92,20.52,7.99
		c6.73-0.75,13.44-1.03,20.15,0.6c23.57,5.74,29.69,21.23,21.22,42.29c-7.88,19.6-23.6,32.22-41.25,41.37
		c-18.58,9.63-38.68,11.41-59.3,3.53c-16-6.11-27.44-16.65-36.58-30.52c-8.16-12.38-15.72-25.02-15.27-40.51
		c0.3-10.22,5.21-18.35,11.78-26.26c4.11-4.95,6.38-8.43,11.16-11.18C414.54,508.34,418.62,509.17,429.7,508.28z"/>
	<path class="st7" d="M472.76,547.65c7.47,2.22,14.41,0.92,21.31,0.27c9.51-0.89,15.54,4.29,20.04,11.61
		c4.53,7.37,2.92,14.89-0.46,22.35c-2.66,5.89-6.34,11.38-10.64,16.2c-3.38,3.8-10.27,8.29-16.66,10.85
		c-8.78-9.27-16.96-19.34-28.86-24.58c-17.36-7.64-35.35-12.9-54.62-8.58c-6.01,1.35-7.49-0.94-9.09-6.48
		c-4.11-14.2-1.21-26.54,9.33-36.13c14.22-12.94,41.76-14.8,54.64,3.12C461.4,541.35,465.31,546.44,472.76,547.65z"/>
	<path class="st8" d="M419.43,581.98c24.1,1.87,43.11,11.7,57.41,31.14c-8.67,8.33-18.25,6.3-27.63,4.38
		c-10.93-2.24-20.3-8.36-30.1-13.25c-7.62-3.8-11.77-11.47-17.94-18.1C407.54,583.27,412.93,581.65,419.43,581.98z"/>
</g>
<g id="crown">
	<path class="st9" d="M252.9,196.74c-1.06,0.69-2.17,1.31-3.34,1.82c-7.2,3.13-12.51,6.88-14.56,7.84
		c-10.58,4.99-18.01,13.2-25.58,19.7c-11.21,9.63-22.76,18.83-33.88,28.63c-12.33,10.87-28.05,18.88-45.76,18.63
		c-12.97-0.19-21.86-7.98-29.05-18c-10.27-14.31-15.15-30.45-16.78-47.84c-0.7-7.45-2.16-14.83-2.03-22.35
		c0.21-11.58,3.88-16.57,14.76-20.23c14.86-4.99,30.16-3.56,45.2-2.01c7.14,0.74,9.75-0.99,10.9-7.49
		c2.52-14.2,4.9-28.44,8.13-42.48c3.1-13.48,9.5-25.75,17.04-37.22c3.56-5.42,10.25-5.83,16.33-5.57
		c13.25,0.56,24.73,6.37,34.96,14.03c5.27,3.95,11.36,5.89,16.88,10.34c5.81-9.72,12.68-17.81,20.74-25.15
		c5.81-5.3,11.61-7.64,18.91-5.92c20.54,4.82,35.26,23.58,36.67,44.77c0.81,12.33,1.4,24.47,0.08,36.84
		c-1.73,16.08-11.89,30.37-27.66,34.46c-11.33,2.94-20.01,7.51-27.76,11.02C264.95,191.54,256.83,194.18,252.9,196.74z"/>
	
		<radialGradient id="SVGID_1_" cx="197.2924" cy="143.3264" r="190.3867" gradientTransform="matrix(1 0 0 1.0919 0 -13.1383)" gradientUnits="userSpaceOnUse">
		<stop  offset="0" style="stop-color:#FAE500"/>
		<stop  offset="0.43" style="stop-color:#F8E300"/>
		<stop  offset="0.5849" style="stop-color:#F1DD00"/>
		<stop  offset="0.6954" style="stop-color:#E6D200"/>
		<stop  offset="0.7846" style="stop-color:#D5C300"/>
		<stop  offset="0.8611" style="stop-color:#BFAF00"/>
		<stop  offset="0.9287" style="stop-color:#A39600"/>
		<stop  offset="0.9885" style="stop-color:#847900"/>
		<stop  offset="1" style="stop-color:#7D7300"/>
		<stop  offset="1" style="stop-color:#766D00"/>
		<stop  offset="1" style="stop-color:#575000"/>
		<stop  offset="1" style="stop-color:#3B3700"/>
		<stop  offset="1" style="stop-color:#252200"/>
		<stop  offset="1" style="stop-color:#141300"/>
		<stop  offset="1" style="stop-color:#090800"/>
		<stop  offset="1" style="stop-color:#020200"/>
		<stop  offset="1" style="stop-color:#000000"/>
	</radialGradient>
	<path class="st10" d="M99.23,182.16c4.36-5.81,10.51-6.53,16.48-7c11.07-0.88,22.05-1.21,32.86,2.89
		c7.83,2.97,10.47,1.15,13.92-6.68c4.53-10.29,4.5-21.61,7.4-32.26c3.82-14.07,6.24-28.6,13.05-41.72
		c7.52-14.48,14.24-16.37,29.18-9.81c8.9,3.91,16.61,9.18,24.26,15.09c9.53,7.36,12.77,9,21.09-2.34
		c5.84-7.97,12.41-15.33,20.17-21.59c9.53-7.68,23.73,10.18,26.36,20.75c2.76,11.08,5.42,21.86,5.41,33.37
		c-0.01,13.98-2.82,27.77-14.33,31.7c-54.8,18.7-65.74,27.25-89.18,45.93c0,0-14.16,12.66-30.35,27.25
		c-6.9,6.22-14.84,11.28-22.93,16.11c-11.46,6.85-21.83,5.81-30.84-2.7c-11.62-10.98-17.22-24.46-20.3-39.64
		C99.56,201.97,98.44,192.46,99.23,182.16z"/>
</g>
</svg>
